<?xml version="1.0" encoding="utf-8"?>
<!-- Generator: Adobe Illustrator 16.0.0, SVG Export Plug-In . SVG Version: 6.00 Build 0)  -->
<!DOCTYPE svg PUBLIC "-//W3C//DTD SVG 1.1//EN" "http://www.w3.org/Graphics/SVG/1.1/DTD/svg11.dtd">
<svg version="1.1" id="Capa_1" xmlns="http://www.w3.org/2000/svg" xmlns:xlink="http://www.w3.org/1999/xlink" x="0px" y="0px"
	 width="612px" height="792px" viewBox="0 0 612 792" enable-background="new 0 0 612 792" xml:space="preserve">
<g>
	<defs>
		<rect id="SVGID_1_" x="104.65" y="325.509" width="402.699" height="140.982"/>
	</defs>
	<clipPath id="SVGID_2_">
		<use xlink:href="#SVGID_1_"  overflow="visible"/>
	</clipPath>
	<g clip-path="url(#SVGID_2_)">
		<g>
			<path fill-rule="evenodd" clip-rule="evenodd" fill="#FEFEFE" d="M306.751,467.991c-66.116,0-132.233-0.02-198.35,0.071
				c-2.564,0.004-3.08-0.499-3.074-3.07c0.101-45.243,0.1-90.488,0-135.732c-0.005-2.564,0.5-3.074,3.071-3.072
				c132.233,0.081,264.466,0.081,396.699,0c2.563-0.001,3.08,0.498,3.075,3.069c-0.102,45.244-0.102,90.489-0.001,135.733
				c0.006,2.564-0.5,3.076-3.07,3.072C438.984,467.972,372.867,467.991,306.751,467.991z"/>
			<path fill-rule="evenodd" clip-rule="evenodd" fill="#DF912E" d="M205.891,373.943c-0.87-3.508-3.738-5.713-5.89-8.232
				c-3.672-4.297-7.14-8.729-10.533-13.234c-0.969-0.736-0.907-2.051-1.638-2.92l-0.011-0.013c-0.328-0.595-0.458-1.268,0.301-1.515
				c0.781-0.253,1.395,0.286,1.883,0.887c6.43,3.9,12.267,8.722,18.96,12.208c0.871,0.454,1.813,0.774,2.722,1.156
				c1.349-0.003,2.498,0.627,3.683,1.15c5.069,2.973,10.253,5.701,15.839,7.594c3.224,1.093,6.515,1.601,9.935,1.52
				c6.253-0.148,10.066-3.152,11.438-9.184c0.277-1.219,0.38-2.468,0.664-3.688c1.065-2.375-0.776-5.458,1.807-7.461
				c2.411-0.151,3.083,1.778,3.944,3.391c4.793,8.978,7.771,18.494,9.551,28.556c1.634,9.239,1.864,18.292,0.041,27.46
				c-1.981,9.961-5.638,19.086-12.824,26.515c-1.453,1.342-3.156,2.362-4.704,3.589c-3.429,0.433-5.752,3.173-8.965,4.213
				c-4.308,1.396-4.447,1.529-5.153-3.107c-0.206-1.351-0.474-2.692-0.714-4.038c-0.639-1.177-0.563-2.542-0.994-3.774
				c-3.209-22.083-12.418-41.327-27.375-57.849C207.115,376.147,206.094,375.293,205.891,373.943z"/>
			<path fill-rule="evenodd" clip-rule="evenodd" fill="#039BFD" d="M214.589,363.798c-1.257,0.047-2.378-0.166-2.904-1.518
				c3.719-6.907,9.777-11.424,16.233-15.366c12.502-7.633,26.151-8.809,39.98-5.201c12.159,3.172,21.94,10.461,29.06,20.894
				c2.043,2.993,3.363,3.275,5.907,0.712c3.231-3.255,6.809-6.164,10.238-9.222c2.439-0.544,2.015,0.837,1.521,2.264
				c-3.082,4.635-5.99,9.4-9.312,13.856c-2.013,2.7-2.325,5.239-1.254,8.278c0.526,1.495,0.635,3.138,0.932,4.714
				c-0.18,5.531-0.221,11.063,0.023,16.593c-3.475,18.096-13.521,30.82-30.56,38.16c-7.567,3.26-15.197,4.988-23.395,3.758
				c0.729-1.709,1.852-2.993,3.73-3.465c1.288-0.39,2.401-1.231,3.862-1.191c18.632,0.514,37.117-18.942,40.84-34.171
				c1.488-6.083,1.38-12.075,1.349-18.158c-0.005-0.98-0.159-1.977-0.77-2.714c-0.916-0.337-1.288,0.261-1.603,0.754
				c-7.827,12.291-15.924,24.406-23.763,36.687c-1.156,1.812-2.548,3.369-4.146,4.778c-2.847,1.015-2.301-1.049-2.353-2.58
				c2.643-11.931,6.457-23.533,9.991-35.215c0.759-2.51,2.617-4.207,4.479-5.879c3.436-3.085,6.864-6.176,10.114-9.462
				c1.673-1.693,1.896-3.234,0.46-5.261c-9.69-13.67-22.963-21.216-39.606-21.176c-12.852,0.032-24.393,4.703-33.375,14.514
				C218.624,360.977,217.302,363.273,214.589,363.798z"/>
			<path fill-rule="evenodd" clip-rule="evenodd" fill="#049BFD" d="M130.1,424.513c-3.397-1.597-6.827-3.182-8.864-6.569
				c-0.558-0.93-2.133-2.057-0.77-3.089c0.955-0.722,2.593-0.723,3.749,0.458c1.027,1.051,2.072,2.097,3.205,3.029
				c6.698,5.516,17.713,2.321,20.174-5.779c0.581-1.909,0.445-3.656-0.39-5.425c-9.407,6.439-18.436,5.882-24.478-1.483
				c-5.735-6.991-5.184-17.605,1.605-24.135c5.461-5.251,14.426-7.277,23.037,0.761c1.32-1.195,0.221-2.878,0.847-4.18
				c2.981-1.256,4.317,0.256,4.354,2.968c0.141,10.446,0.217,20.896-0.045,31.34c-0.068,2.72-1.134,5.345-3.123,7.415
				C144.13,426.166,137.157,425.514,130.1,424.513z"/>
			<path fill-rule="evenodd" clip-rule="evenodd" fill="#049BFD" d="M454.838,412.308c-9.534-4.579-13.318-10.455-12.467-19.771
				c0.618-6.736,4.006-11.843,10.279-14.399c5.524-2.251,10.943-1.486,15.68,2.48c0.658,0.552,1.396,1.013,2.108,1.499
				c0.07,0.048,0.229-0.033,0.37-0.058c0.137-0.162,0.359-0.315,0.424-0.518c0.421-1.322-1.054-3.542,1.724-3.737
				c2.642-0.184,2.729,2.058,2.751,3.598c0.131,9.476,0.121,18.955-0.001,28.43c-0.032,2.538-1.718,2.644-4.948,0.38
				c-1.608-1.84-2.715,0.085-3.808,0.668C463.062,412.956,459.074,413.518,454.838,412.308z"/>
			<path fill-rule="evenodd" clip-rule="evenodd" fill="#049BFD" d="M322.891,410.916c-4.87-3.663-8.218-8.276-8.587-14.543
				c-0.414-7.023,1.938-13.68,8.729-17.644c5.059-2.952,13.34-2.05,17.8,1.804c2.257,1.95,3.744,4.549,5.252,7.095
				c0.447,2.097,2.146,4.028,0.852,6.361c-1.682,1.153-3.604,0.727-5.44,0.795c-7.199,0.269-14.418-0.506-21.587,0.432
				c-0.262,0.235-0.497,0.504-0.679,0.808c-0.952,1.31-0.095,2.448,0.363,3.62c0.265,0.896,0.398,1.842,0.974,2.624
				c5.208,8.123,13.979,8.487,19.967,0.874c1.186-1.507,2.419-3.53,4.626-1.114c1.16,1.248,0.621,2.514-0.053,3.698
				c-3.288,5.783-12.582,8.968-18.781,6.343C325.191,411.588,323.913,411.646,322.891,410.916z"/>
			<path fill-rule="evenodd" clip-rule="evenodd" fill="#049BFD" d="M173.677,412.556c-8.749-1.802-13.122-8.174-13.921-14.795
				c-1.082-8.962,1.954-15.832,9.648-19.446c6.874-3.228,16.758-1.167,20.808,7.826c0.521,1.524,0.951,3.075,1.498,4.596
				c0.951,2.646,0.178,3.692-2.691,3.728c-7.099,0.09-14.2,0.008-21.299,0.039c-4.227,0.018-4.858,0.903-3.537,4.889
				c0.939,2.834,2.013,5.59,4.855,7.135c5.656,3.582,14.104,2.28,18.058-5.302c3.404-0.137,4.768,1.566,3.263,4.321
				c-2.385,4.366-6.285,6.688-11.133,7.25C177.418,413.008,175.499,413.204,173.677,412.556z"/>
			<path fill-rule="evenodd" clip-rule="evenodd" fill="#049BFD" d="M417.248,412.487c-6.42-2.009-11.016-5.853-13.233-12.44
				c-3.122-9.271,3.619-22.611,15.211-23.008c5.494-0.188,10.314,0.906,14.304,4.801c1.136,1.109,2.67,2.374,1.007,4.016
				c-1.423,1.406-2.706,0.22-3.841-0.818c-1.265-1.157-2.5-2.373-4.298-2.68c-4.488-1.982-8.58-1.103-12.403,1.716
				c-0.594,0.42-1.239,0.768-1.771,1.273c-4.136,5.068-4.828,10.606-2.262,16.588c4.432,7.438,13.384,8.911,19.972,3.117
				c1.788-1.572,3.264-2.424,5.277-0.656c1.13,1.404,0.481,2.545-0.61,3.524c-1.671,1.499-3.345,3.021-5.6,3.634
				C425.174,413.02,421.254,413.293,417.248,412.487z"/>
			<path fill-rule="evenodd" clip-rule="evenodd" fill="#069BFD" d="M397.86,453.763c-2.462-1.306-5.207-1.918-7.556-3.598
				c-4.054-2.9-6.331-7.034-6.355-11.601c-0.033-6.002,3.175-10.764,8.801-13.425c7.943-3.755,15.434-2.354,22.5,2.363
				c0.77,0.513,2.496,1.028,1.381,2.467c-0.889,1.146-2.208,0.818-3.355,0.003c-2.997-2.131-6.201-3.637-10.025-3.149
				c-2.197,0.884-4.933-0.667-6.843,1.514c-1.453,1.092-3.034,2.051-4.337,3.301c-3.927,3.768-3.546,8.292-1.449,12.64
				c1.862,3.864,5.522,5.521,9.7,5.894c4.284,0.383,8.422,0.043,12.005-2.765c1.283-1.006,2.942-1.398,4.023-0.036
				c1.296,1.635-0.748,2.317-1.548,3.204c-1.839,2.038-4.611,2.261-6.978,3.278c-0.938,0.781-2.32,0.419-3.234,1.261l-0.351,0.069
				l-0.352-0.07c-1.223-0.989-2.683-0.492-4.041-0.64C399.099,454.473,398.412,454.309,397.86,453.763z"/>
			<path fill-rule="evenodd" clip-rule="evenodd" fill="#079CFC" d="M474.347,446.313c2.492,4.051,8.882,5.457,12.943,2.797
				c1.133-0.742,2.148-1.664,3.226-2.493c0.976-0.75,1.888-0.471,2.683,0.279c0.648,0.612,0.482,1.268,0.02,1.986
				c-2.153,3.349-11.761,6.326-15.356,4.482c-7.536-3.863-9.835-8.494-8.166-14.289c1.467-5.092,7.355-8.833,13.105-8.215
				c5.287,0.568,9.376,2.929,11.705,7.893c1.134,3.85,0.997,4.075-2.804,4.097c-4.951,0.028-9.903,0.084-14.852-0.023
				C474.105,442.768,473.093,443.648,474.347,446.313z"/>
			<path fill-rule="evenodd" clip-rule="evenodd" fill="#059BFD" d="M425.483,452.955c-1.871-0.189-2.383-1.213-2.362-3.063
				c0.082-7.442-0.012-14.887-0.029-22.331c-0.003-0.866-0.012-1.743,0.107-2.597c0.139-0.989,0.312-1.977,1.753-1.91
				c1.12,0.051,1.316,0.686,1.673,1.586c0.771,1.955,0.624,3.94,0.505,5.914c-0.158,2.633,0.597,3.002,2.931,1.775
				c4.828-2.537,9.526-1.909,12.961,1.335c1.97,1.859,2.533,4.271,2.655,6.773c0.159,3.242,0.059,6.497,0.081,9.745
				c0.01,1.438,0.054,2.939-2.03,2.752c-1.662-0.148-2.856-0.938-2.85-2.817c0.011-2.747-0.012-5.496,0.104-8.24
				c0.309-7.276-3.465-9.628-10.269-6.348c-2.351,2.362-3.146,5.19-2.906,8.5c0.16,2.217,0.306,4.489-0.212,6.697
				C427.336,451.835,427.443,453.41,425.483,452.955z"/>
			<path fill-rule="evenodd" clip-rule="evenodd" fill="#069CFC" d="M205.891,373.943c1.673-0.103,1.618,1.44,2.234,2.343
				c-0.212,5.336-1.423,10.55-1.337,15.964c0.204,12.875,5.271,23.415,14.302,32.26c2.674,2.618,5.495,5.096,8.794,6.947
				c0.986,0.554,1.942,1.17,2.135,2.442c-0.058,1.547-0.53,2.582-2.373,1.928c-13.455-6.861-21.533-17.831-25.663-32.269
				c-2.638-9.222-1.781-18.129,0.339-27.138C204.535,375.522,205.354,374.766,205.891,373.943z"/>
			<path fill-rule="evenodd" clip-rule="evenodd" fill="#069BFC" d="M370.995,377.977c5.134-0.584,5.134-0.584,5.134-5.981
				c0-1.494-0.002-2.987,0-4.481c0-1.135-0.12-2.275,1.587-2.353c1.603-0.073,2.74,0.337,2.841,2.114
				c0.111,1.986,0.231,3.982,0.151,5.965c-0.117,2.912,0.437,5.059,4.071,4.452c1.351-0.225,1.763,0.563,1.912,1.678
				c0.729,2.768-1.436,2.657-2.962,2.67c-1.653,0.015-2.736,0.45-3.253,2.041c-0.931,2.146-0.236,4.379-0.28,6.562
				c-0.138,6.821-0.012,13.646-0.052,20.473c-0.916,1.44-2.023,1.341-3.233,0.403c-1.128-1.127-0.766-2.568-0.771-3.902
				c-0.026-7.23,0.01-14.461-0.035-21.692c-0.007-1.187,0.46-2.515-0.638-3.527c-1.051-0.286-2.037-0.959-3.104-0.972
				C368.933,381.385,369.235,380.003,370.995,377.977z"/>
			<path fill-rule="evenodd" clip-rule="evenodd" fill="#149EF8" d="M488.202,388.48c0,6.485,0.072,12.973-0.06,19.456
				c-0.027,1.329,0.971,3.659-1.681,3.714c-2.254,0.046-2.564-1.563-2.574-3.595c-0.062-13.273-0.284-26.547-0.389-39.821
				c-0.014-1.703-0.055-3.805,2.562-3.67c2.474,0.126,1.982,2.26,2.003,3.709c0.099,6.735,0.044,13.471,0.044,20.208
				C488.139,388.48,488.171,388.48,488.202,388.48z"/>
			<path fill-rule="evenodd" clip-rule="evenodd" fill="#199FF6" d="M392.13,394.145c0-4.363-0.012-8.726,0.006-13.088
				c0.007-1.597-0.306-3.498,2.206-3.45c2.405,0.047,2.28,1.977,2.29,3.535c0.055,9.344,0.019,18.688,0.041,28.03
				c0.003,1.292,0.192,2.733-1.705,2.565c-1.495-0.132-2.902-0.478-2.854-2.636c0.111-4.983,0.035-9.971,0.035-14.957
				C392.144,394.145,392.137,394.145,392.13,394.145z"/>
			<path fill-rule="evenodd" clip-rule="evenodd" fill="#059BFC" d="M357.268,378.277c0.221,1.332-0.102,3.782,2.256,1.431
				c2.554-2.548,5.536-2.907,8.837-2.339c1.143,2.059,0.678,3.736-1.684,4.012c-5.375,0.626-7.097,4.307-7.998,8.835
				c-1.002,5.036-0.413,10.134-0.56,15.202c-0.032,1.115,0.05,2.234-0.028,3.347c-0.23,3.28-1.031,3.621-4.184,1.828
				c-0.645-8.444-0.11-16.9-0.285-25.347c-0.043-2.113,0.094-4.229-0.11-6.34C354.439,376.761,355.834,377.405,357.268,378.277z"/>
			<path fill-rule="evenodd" clip-rule="evenodd" fill="#C0C7CD" d="M354.364,410.942c2.358,0.954,3.095,0.063,3.043-2.35
				c-0.109-5.107-0.045-10.221,0.014-15.331c0.036-3.159,0.637-6.251,2.433-8.883c1.186-1.738,2.84-3.363,5.131-3.272
				c2.855,0.112,3.312-1.538,3.377-3.736c0.883,0.177,1.458,1.687,2.633,0.607c-0.551,1.772-1.019,3.419,1.907,3.245
				c0.928-0.055,1.972,0.219,2.566,1.175c-2.596,0.029-5.072-0.991-7.77-0.497c-4.942,0.905-7.259,3.456-8.124,8.579
				c-1.026,6.08-0.539,12.17-0.751,18.255c-0.053,1.546,0.841,3.917-2.118,3.752c-2.399-0.134-4.122-0.858-4.056-4.027
				c0.194-9.352,0.03-18.709,0.078-28.064c0.019-3.541,1.316-4.102,4.54-2.119c-1.24-0.094-2.603-1.073-3.612,0.498
				c0.735,9.258,0.113,18.532,0.345,27.795C354.036,408.027,353.615,409.539,354.364,410.942z"/>
			<path fill-rule="evenodd" clip-rule="evenodd" fill="#0D9DFB" d="M451.053,441.747c-0.002-2.621-0.008-5.243,0.001-7.864
				c0.004-1.108-0.209-2.311,1.534-2.389c1.504-0.066,1.944,0.806,2.131,2.031c0.641,4.222,0.142,8.47,0.287,12.703
				c0.052,1.496,0.03,2.996,0.042,4.494c0.011,1.271-0.293,2.23-1.886,2.083c-1.293-0.121-2.115-0.643-2.11-2.07
				C451.062,447.739,451.055,444.743,451.053,441.747z"/>
			<path fill-rule="evenodd" clip-rule="evenodd" fill="#B5B5B4" d="M148.832,419.711c2.144-3.063,3.127-6.536,3.17-10.202
				c0.106-9.35,0.039-18.703,0.092-28.054c0.015-2.725-1.063-3.996-3.879-3.354c3.515-1.561,5.118-0.427,5.164,4.055
				c0.096,9.316,0.021,18.634,0.003,27.95c-0.003,1.729-0.046,3.416-0.57,5.139c-0.719,2.366-1.839,4.312-3.898,5.689
				C148.548,420.549,148.52,420.142,148.832,419.711z"/>
			<path fill-rule="evenodd" clip-rule="evenodd" fill="#1AA1F7" d="M464.097,438.352c0,3.985,0.017,7.97-0.011,11.954
				c-0.008,1.097,0.122,2.434-1.586,2.354c-1.286-0.06-2.116-0.813-2.116-2.142c-0.003-8.467,0.021-16.934,0.069-25.399
				c0.007-1.086,0.455-2.021,1.757-1.925c1.487,0.109,1.746,1.387,1.769,2.464c0.089,4.229,0.037,8.462,0.037,12.693
				C464.043,438.352,464.069,438.352,464.097,438.352z"/>
			<path fill-rule="evenodd" clip-rule="evenodd" fill="#129DF7" d="M169.038,406.527c-3.422-1.182-7.057-8.525-5.796-11.625
				c0.661-1.626,2.051-1.119,3.189-1.126c7.197-0.045,14.395-0.008,21.592-0.029c3.953-0.012,4.192-0.333,2.722-3.989
				c-0.484-1.202-0.69-2.361-0.532-3.616c0.268,0.412,0.591,0.798,0.794,1.239c3.056,6.63,2.222,8.02-4.818,8.022
				c-6.336,0.003-12.674,0.066-19.008-0.058c-2.886-0.056-3.534,1.104-2.639,3.636C165.538,401.802,166.694,404.516,169.038,406.527
				z"/>
			<path fill-rule="evenodd" clip-rule="evenodd" fill="#C1BCBD" d="M346.894,393.758c0.465-2.14-1.069-4.016-0.808-6.129
				c0.463,0.708,1.078,1.361,1.367,2.137c2,5.378,1.432,6.192-4.19,6.193c-6.194,0-12.393,0.127-18.581-0.054
				c-3.12-0.091-5.145,0.317-4.162,4.137c0.179,0.699,0.039,1.479,0.047,2.225c-1.584-0.201-1.386-1.466-1.511-2.537
				c-0.103-1.248-1.561-2.281-0.585-3.699l-0.032,0.048c0.832-1.985,2.612-1.549,4.155-1.558c6.674-0.04,13.348,0.002,20.021-0.031
				C344.068,394.482,345.608,394.815,346.894,393.758z"/>
			<path fill-rule="evenodd" clip-rule="evenodd" fill="#A1C0D3" d="M376.911,411.519c0.984-0.071,2.097,0.503,2.885-0.567
				c0.016-0.219,0.031-0.437,0.046-0.655c-0.023-8.104,0.182-16.211-0.106-24.314c-0.17-0.632-0.403-1.272,0.209-1.814
				c0.524-1.795,1.413-2.897,3.597-2.626c1.461,0.181,2.989-0.164,3.15-2.17c0.885,0.553,1.719,1.189,1.222,2.385
				c-0.363,0.874-1.288,0.713-1.972,0.631c-3.774-0.451-4.462,0.789-4.412,4.784c0.095,7.704,0.229,15.449-0.177,23.155
				C381.163,413.913,378.832,412.696,376.911,411.519z"/>
			<path fill-rule="evenodd" clip-rule="evenodd" fill="#0F9DF9" d="M393.347,370.613c-1.962-0.783-2.485-2.376-2.09-4.229
				c0.292-1.365,1.162-2.529,2.696-2.693c2.126-0.227,2.937,1.462,3.86,2.92C398.413,370.372,397.71,371.002,393.347,370.613z"/>
			<path fill-rule="evenodd" clip-rule="evenodd" fill="#BECFDA" d="M322.891,410.916c4.404,1.173,8.748,2.262,13.391,0.847
				c4.237-1.292,8.428-5.592,8.88-9.735c2.474,1.576,1.397,3.23,0.146,4.939C339.924,414.314,330.034,415.336,322.891,410.916z"/>
			<path fill-rule="evenodd" clip-rule="evenodd" fill="#C8CED8" d="M173.677,412.556c6.493,0.476,11.937-1.456,15.763-6.971
				c1.916-2.763,1.279-3.895-2.344-4.36c1.282-1.391,2.511-0.839,3.438,0.318c1.146,1.433,1.459,2.984,0.447,4.809
				C187.829,412.031,180.009,414.897,173.677,412.556z"/>
			<path fill-rule="evenodd" clip-rule="evenodd" fill="#B7C5CE" d="M425.483,452.955c1.491-0.496,1.567-1.671,1.552-2.996
				c-0.034-2.85,0.076-5.702,0.051-8.553c-0.026-2.75,1.15-4.7,3.628-5.877c-2.625,4.219-1.865,8.969-2.354,13.555
				C428.228,450.314,429.826,454.299,425.483,452.955z"/>
			<path fill-rule="evenodd" clip-rule="evenodd" fill="#D0DADF" d="M474.347,446.313c-1.881-3.279-1.656-3.794,1.893-3.835
				c4.938-0.059,9.884-0.194,14.811,0.037c3.009,0.141,4.096-0.857,3.456-3.762c0.816,0.969,2.688,1.498,1.999,3.122
				c-0.583,1.373-2.191,1.42-3.594,1.419c-5.102-0.004-10.205,0.097-15.303-0.04C475.293,443.192,473.998,443.757,474.347,446.313z"
				/>
			<path fill-rule="evenodd" clip-rule="evenodd" fill="#B9C3CD" d="M409.962,401.935c-3.766-5.418-2.879-12.485,2.155-17.164
				c0.343,0.146,0.589,0.388,0.725,0.738c-0.219,0.254-0.438,0.509-0.657,0.764c-0.861,1.09-1.722,2.181-1.703,3.679
				C408.702,393.877,409.3,397.904,409.962,401.935z"/>
			<path fill-rule="evenodd" clip-rule="evenodd" fill="#01A2FE" d="M305.013,399.802c-1.482-5.529-1.44-11.06-0.023-16.593
				C305.974,388.739,305.881,394.27,305.013,399.802z"/>
			<path fill-rule="evenodd" clip-rule="evenodd" fill="#B9C7CF" d="M148.832,419.711c0.028,0.407,0.055,0.813,0.082,1.221
				c-2.984,4.557-7.785,4.918-12.42,4.797c-2.04-0.053-4.476,0.229-6.394-1.216c3.111,0.045,6.23,0.24,9.333,0.099
				C143.263,424.437,146.097,422.112,148.832,419.711z"/>
			<path fill-rule="evenodd" clip-rule="evenodd" fill="#C5C7C5" d="M454.838,412.308c5.079,0.721,9.739-0.007,13.808-3.498
				c1.581-1.356,2.83-1.216,2.111,1.4c-4.11,1.386-7.938,3.91-12.595,3.091C457.012,413.098,455.658,413.605,454.838,412.308z"/>
			<path fill-rule="evenodd" clip-rule="evenodd" fill="#20A0F3" d="M451.203,426.722c-1.339-1.339-1.344-2.771,0.372-3.538
				c1.816-0.811,3.347-0.102,4.008,1.943C455.14,428.448,452.943,426.961,451.203,426.722z"/>
			<path fill-rule="evenodd" clip-rule="evenodd" fill="#B8C5CC" d="M429.369,411.031c2.023-2.146,5.784-2.761,5.842-6.636
				c1.436,0.953,2.078,2.033,0.574,3.478c-1.856,1.784-3.642,3.681-6.41,4.003c-0.187-0.187-0.248-0.374-0.188-0.563
				C429.247,411.125,429.308,411.031,429.369,411.031z"/>
			<path fill-rule="evenodd" clip-rule="evenodd" fill="#98C3E0" d="M413.423,383.936c3.389-3.458,9.051-4.147,12.976-1.578
				c-3.591-0.917-7.066-0.489-10.464,0.881C415.124,383.568,414.507,384.595,413.423,383.936z"/>
			<path fill-rule="evenodd" clip-rule="evenodd" fill="#86BCD5" d="M314.624,356.36c-0.202-0.959,0.336-2.416-1.521-2.264
				c0.325-1.837,2.56-2.041,3.135-3.665c0.695-0.829,1.457-0.708,2.249-0.156C317.663,352.598,316.158,354.488,314.624,356.36z"/>
			<path fill-rule="evenodd" clip-rule="evenodd" fill="#1EA9E4" d="M229.647,435.827c1.424-0.063,1.819-0.929,1.707-2.189
				c1.504-0.638,2.344,0.705,3.484,1.165c0.673,0.964,2.116,1.921,0.938,3.156c-1,1.048-1.994-0.327-2.973-0.703
				C231.638,437.029,230.491,436.762,229.647,435.827z"/>
			<path fill-rule="evenodd" clip-rule="evenodd" fill="#A8C7DC" d="M429.369,411.031c0.002,0.281,0.004,0.563,0.006,0.844
				c-3.948,2.053-8.007,1.907-12.125,0.612C421.367,412.652,425.419,412.267,429.369,411.031z"/>
			<path fill-rule="evenodd" clip-rule="evenodd" fill="#BACAD4" d="M393.347,370.613c2.859,0.198,4.473-0.995,4.468-3.999
				c1.778,0.945,1.512,2.419,0.627,3.656C396.987,372.299,395.13,371.674,393.347,370.613z"/>
			<path fill-rule="evenodd" clip-rule="evenodd" fill="#D7BF9C" d="M190.003,348.916c-0.763,0.086-1.949-1.293-2.184,0.628
				c-1.367-0.772-1.644-2.254-2.824-3.909C187.544,346.196,189.262,346.798,190.003,348.916z"/>
			<path fill-rule="evenodd" clip-rule="evenodd" fill="#53B1CE" d="M232.803,437.256c0.89,0.163,1.779,0.326,2.641,0.484
				c0.452-1.359-0.795-1.777-1.027-2.647c0.408-0.469,0.859-0.545,1.363-0.152c0.99,1.185,0.854,2.501,0.448,3.848
				C234.961,438.557,233.469,438.828,232.803,437.256z"/>
			<path fill-rule="evenodd" clip-rule="evenodd" fill="#B7B7B4" d="M451.203,426.722c1.712,0.162,3.598,0.803,4.38-1.594
				c0.722,0.633,1.224,1.596,0.284,2.108C454.328,428.075,452.613,428.186,451.203,426.722z"/>
			<path fill-rule="evenodd" clip-rule="evenodd" fill="#3DAAED" d="M396.407,428.337c1.761-2.856,4.507-1.256,6.842-1.514
				C400.969,427.328,398.688,427.832,396.407,428.337z"/>
			<path fill-rule="evenodd" clip-rule="evenodd" fill="#D8D9DA" d="M318.487,350.275c-0.75,0.051-1.5,0.103-2.249,0.155
				c0.213-0.969,1.193-1.119,1.806-1.655c0.538-0.47,1.299-0.991,1.662,0.128C320.011,349.841,319.248,350.126,318.487,350.275z"/>
			<path fill-rule="evenodd" clip-rule="evenodd" fill="#2FABFC" d="M399.998,453.809c1.36,0.241,3.21-0.971,3.89,1.304
				c-1.24,0.035-2.481,0.07-3.722,0.105C399.675,454.8,399.66,454.325,399.998,453.809z"/>
			<path fill-rule="evenodd" clip-rule="evenodd" fill="#C7BAB3" d="M413.423,383.936c0.836-0.232,1.673-0.464,2.511-0.696
				c-0.694,1.213-1.91,1.717-3.092,2.269c-0.242-0.246-0.483-0.492-0.725-0.738C412.291,384.085,412.89,384.063,413.423,383.936z"/>
			<path fill-rule="evenodd" clip-rule="evenodd" fill="#2BAAFD" d="M404.59,455.113c0.465-1.994,2.014-1.207,3.234-1.261
				C407.479,456.154,405.783,454.99,404.59,455.113z"/>
			<path fill-rule="evenodd" clip-rule="evenodd" fill="#C2BCBB" d="M410.481,389.952c-0.909-1.909,0.388-2.798,1.703-3.679
				C411.616,387.5,411.049,388.726,410.481,389.952z"/>
			<path fill-rule="evenodd" clip-rule="evenodd" fill="#E4F3FE" d="M399.998,453.809c0.056,0.47,0.111,0.939,0.168,1.41
				c-1.101,0.041-2.202,0.084-2.306-1.456C398.573,453.778,399.285,453.793,399.998,453.809z"/>
			<path fill-rule="evenodd" clip-rule="evenodd" fill="#D7BF9C" d="M187.83,349.557c1.081,0.673,1.391,1.778,1.637,2.92
				C188.183,351.918,187.839,350.832,187.83,349.557z"/>
			<path fill-rule="evenodd" clip-rule="evenodd" fill="#FEFEFE" d="M270.373,423.749c9.432-13.692,18.499-27.623,27.362-41.688
				c0.58-0.92,1.289-2.308,2.316-2.183c1.5,0.183,1.338,1.869,1.515,3.055c2.322,15.582-2.116,28.972-12.893,40.42
				c-9.218,9.792-20.146,15.494-33.886,14.902c3.788-4.928,7.591-9.883,9.696-15.805c4.101-11.533,5.406-23.308,3.513-35.533
				c-1.748-11.287-4.975-21.968-10.443-31.992c-0.559-1.024-1.075-1.94-2.102-2.505c-1.535-0.39-1.115,0.805-1.196,1.524
				c-0.229,2.007,0.417,4.073-0.396,6.045c0.195,8.632-6.083,14.719-14.715,13.684c-9.081-1.09-17.104-4.756-24.554-9.875
				c5.497-6.289,11.27-12.406,19.117-15.642c10.205-4.208,20.667-6.137,31.788-2.94c7.916,2.276,14.819,5.937,21,11.254
				c3.541,3.045,5.961,6.964,8.747,10.603c1.23,1.606,0.206,2.735-0.955,3.833c-2.788,2.64-5.32,5.609-8.358,7.915
				c-5.387,4.09-7.788,9.652-9.446,15.936c-1.895,7.18-3.677,14.413-6.353,21.368c-0.675,1.754-0.014,3.775-1.137,5.429
				c-1.234,1.153,0.154,2.762-0.85,4.072C269.212,425.193,269.875,424.565,270.373,423.749z"/>
			<path fill-rule="evenodd" clip-rule="evenodd" fill="#FEFEFE" d="M235.78,434.94c-0.455,0.05-0.91,0.101-1.364,0.152
				c-1.27,0.038-2.148-0.746-3.063-1.455c-7.574-4.862-14.493-10.354-19.081-18.373c-7.106-12.42-8.663-25.356-4.147-38.978
				c8.226,8.743,14.789,18.579,19.723,29.539c3.619,8.042,5.962,16.445,7.652,25.058C235.759,432.203,235.695,433.586,235.78,434.94
				z"/>
			<path fill-rule="evenodd" clip-rule="evenodd" fill="#E6C18C" d="M253.86,359.99c0.001-2.434-0.083-4.872,0.031-7.3
				c0.089-1.896,0.744-1.89,1.562-0.269C253.483,354.641,255.933,357.792,253.86,359.99z"/>
			<path fill-rule="evenodd" clip-rule="evenodd" fill="#C0DEEE" d="M270.373,423.749c0.118,1.9-1.61,2.228-3.111,3.644
				c0.753-2.318,0.271-4.313,1.731-5.84C269.766,422.088,267.417,424.586,270.373,423.749z"/>
			<path fill-rule="evenodd" clip-rule="evenodd" fill="#FDFEFE" d="M139.054,381.767c7.066,2.523,10.188,8.305,8.603,15.935
				c-1.403,6.757-6.326,10.275-13.697,9.643c-4.363-0.375-7.163-3.021-9.101-6.749c-2.061-6.809-0.85-12.667,5.19-16.939
				C132.715,381.77,135.705,380.735,139.054,381.767z"/>
			<path fill-rule="evenodd" clip-rule="evenodd" fill="#ACBFD1" d="M139.054,381.767c-8.313-0.678-16.295,6.192-14.135,17.349
				c0.091,0.472-0.035,0.984-0.06,1.479c-4.212-8.555,0.962-18.38,10.348-19.557C136.507,380.875,137.959,380.552,139.054,381.767z"
				/>
			<path fill-rule="evenodd" clip-rule="evenodd" fill="#FDFEFE" d="M461.647,381.733c6.413,2.127,9.869,6.885,9.646,13.279
				c-0.245,7.03-3.737,11.509-10.34,13.263c-5.039,1.338-9.985-1.605-12.861-7.652c-1.636-6.23-1.034-11.936,4.263-16.289
				C455.004,382.159,458.01,380.665,461.647,381.733z"/>
			<path fill-rule="evenodd" clip-rule="evenodd" fill="#B9CAD2" d="M461.647,381.733c-8.644,0.431-13.628,5.703-13.606,14.399
				c0.005,1.496,0.034,2.992,0.052,4.489c-4.145-8.369,0.716-18.2,9.692-19.513C459.085,380.919,460.509,380.62,461.647,381.733z"/>
			<path fill-rule="evenodd" clip-rule="evenodd" fill="#F9FCFD" d="M319.924,388.548c2.271-4.187,5.521-6.809,10.491-7.223
				c5.876-0.49,11.781,4.626,11.137,9.908c-1.493,1.329-3.284,0.54-4.912,0.584c-4.688,0.13-9.383,0.056-14.075,0.042
				C320.328,391.853,318.818,391.236,319.924,388.548z"/>
			<path fill-rule="evenodd" clip-rule="evenodd" fill="#119CF6" d="M346.894,393.758c-0.298,2.211-2.039,1.405-3.224,1.416
				c-6.857,0.06-13.716,0.025-20.573,0.004c-1.618-0.005-3.257-0.187-4.658,0.899c-0.328-2.621,1.515-2.325,3.132-2.325
				C330.012,393.753,338.452,393.756,346.894,393.758z"/>
			<path fill-rule="evenodd" clip-rule="evenodd" fill="#119CF6" d="M319.924,388.548c-0.249,2.53,1.336,2.806,3.299,2.785
				c6.109-0.064,12.219-0.071,18.329-0.1c-0.322,0.84-1.023,1.007-1.81,1.007c-5.99,0.003-11.979-0.009-17.969,0.015
				c-1.4,0.006-2.483-0.585-3.05-1.78C318.239,389.456,319.036,388.895,319.924,388.548z"/>
			<path fill-rule="evenodd" clip-rule="evenodd" fill="#119CF6" d="M318.471,396.03c0.195,1.233,0.39,2.467,0.585,3.699
				C318.314,398.583,316.695,397.575,318.471,396.03z"/>
			<path fill-rule="evenodd" clip-rule="evenodd" fill="#FAFCFD" d="M167.656,385.375c4.233-6.284,15.557-5.167,18.72,2.594
				c0.463,1.136,1.248,2.253-0.032,3.363c-6.721,0.912-13.444,0.812-20.168,0.039l0.099,0.028c-0.328-0.214-0.543-0.511-0.648-0.889
				C165.372,388.431,166.936,387.07,167.656,385.375z"/>
			<path fill-rule="evenodd" clip-rule="evenodd" fill="#129DF7" d="M166.176,391.371c6.723-0.013,13.445-0.026,20.168-0.038
				c-0.585,1.125-1.656,0.91-2.62,0.913c-4.965,0.015-9.931,0.015-14.896,0.002C167.86,392.246,166.798,392.451,166.176,391.371z"/>
			<path fill-rule="evenodd" clip-rule="evenodd" fill="#D3C8B9" d="M167.656,385.375c0.32,2.073-1.452,3.51-1.649,5.426
				c-1.571,0.492-1.927-0.123-1.404-1.54C164.556,387.129,166.37,386.46,167.656,385.375z"/>
			<path fill-rule="evenodd" clip-rule="evenodd" fill="#129DF7" d="M164.602,389.261c0.125,0.826,0.222,1.681,1.405,1.54
				c0.145,0.174,0.233,0.374,0.267,0.598C164.746,391.446,162.971,391.686,164.602,389.261z"/>
			<path fill-rule="evenodd" clip-rule="evenodd" fill="#F5F9FC" d="M482.362,439.813c-2.219,0-4.442,0.091-6.654-0.03
				c-1.69-0.093-2.128-0.84-1.013-2.385c3.143-4.361,11.769-4.582,14.808-0.278c0.998,1.414,1.084,2.607-1.172,2.637
				c-1.989,0.025-3.979,0.005-5.969,0.005C482.362,439.777,482.362,439.795,482.362,439.813z"/>
			<path fill-rule="evenodd" clip-rule="evenodd" fill="#01A3FE" d="M203.403,385.542c0.078,0.438,0.219,0.875,0.222,1.314
				c0.02,2.975,0.011,5.951-0.469,8.933c0-3.404,0-6.808,0-10.212C203.238,385.564,203.321,385.553,203.403,385.542z"/>
			<path fill-rule="evenodd" clip-rule="evenodd" fill="#0397F9" d="M379.944,384.167c-0.011,0.398-0.021,0.796-0.03,1.195
				c0.469,8.522,0.626,17.043-0.084,25.562l-0.034,0.028c-0.656-0.535-0.679-1.28-0.679-2.036
				c0.001-8.771,0.001-17.543,0.001-26.457C380.151,382.911,379.742,383.65,379.944,384.167z"/>
			<path fill-rule="evenodd" clip-rule="evenodd" fill="#01A0FE" d="M354.364,410.942c-0.748-0.162-0.939-0.725-0.935-1.375
				c0.069-10.265,0.148-20.529,0.225-30.793c1.187,1.118,0.687,2.571,0.692,3.875C354.387,392.081,354.365,401.512,354.364,410.942z
				"/>
			<path fill-rule="evenodd" clip-rule="evenodd" fill="#0397F8" d="M462.599,424.431c0,8.842,0,17.684,0,26.525
				c-0.189,0.006-0.38,0.012-0.569,0.018c0-8.841,0-17.682,0-26.523C462.219,424.443,462.409,424.438,462.599,424.431z"/>
			<path fill-rule="evenodd" clip-rule="evenodd" fill="#069BFC" d="M379.83,410.924c0.027-8.52,0.056-17.04,0.083-25.56
				C380.716,393.886,380.904,402.407,379.83,410.924z"/>
		</g>
	</g>
</g>
</svg>
